<?xml version="1.0" encoding="UTF-8"?>
<svg xmlns="http://www.w3.org/2000/svg" viewBox="0 0 1095 1095" width="1095" height="1095">
<path d="M597 6.12C599.76 8.25 612.2 10.85 616.45 12.1C630.08 16.1 643.92 20.88 656.92 26.59C696.3 43.86 733.97 72.03 760.47 106.05C797.89 154.09 821.07 212.29 823.17 273.5C826.56 372.59 771.18 470.98 684.04 518.52C655.02 534.36 622.39 545.48 589.5 549.26C564.56 552.12 539.54 551.1 514.53 552.41C492 553.59 468.5 556.68 447 563.52C393.13 580.66 350.01 607.5 313.4 650.88C309.87 655.06 306.95 659.83 303.8 664.29C291.85 681.2 282.2 698.98 274.78 718.31C271.54 726.74 267.9 735.22 265.47 743.93C244.37 819.6 255.34 903.74 298.71 969.77C321.03 1003.75 352.53 1032.38 387.22 1053.31C398.06 1059.85 409.63 1065.14 421.12 1070.39C425.87 1072.56 432.12 1073.75 436.07 1076.96C432.93 1079.92 429.5 1078.23 425.5 1077.39C416.15 1075.43 406.71 1072.75 397.55 1069.91C360.18 1058.32 324.11 1044.1 289.35 1026.16C204.42 982.32 133.42 915.06 81.15 835.42C74.18 824.8 68.3 813.27 62.42 802.07C61.53 800.38 60.17 798.99 59.29 797.29C50.13 779.86 42.33 761.69 35.16 743.38C21.23 707.84 12.7 670.01 6 632.5C4.45 623.81 3.58 614.32 3.19 605.5C2.94 599.99 3.41 592.71 0.17 588.04C0.17 563.39 0.17 538.74 0.17 514.09C3.61 508.39 2.75 499.62 3.52 493.09C5.43 476.75 7.46 460.51 10.64 444.35C17.96 407.15 28.15 370 44.1 335.53C47.09 329.06 49.17 322.2 52.19 315.71C58.5 302.2 65.76 288.78 73.64 276.18C76.5 271.6 78.6 266.52 81.47 261.94C99.55 233.04 120.18 205.77 142.72 180.18C151.15 170.59 160.85 160.37 170.32 151.82C176.45 146.28 183.07 141.2 189.13 135.61C205.18 120.77 222.69 107.49 240.88 95.38C253.67 86.86 266.26 77.63 279.99 70.54C292.36 64.16 304.63 57.67 317.31 51.83C320.94 50.15 324.43 48.04 328.19 46.66C343.64 40.98 358.87 34.3 374.49 29.04C386.22 25.1 398.22 22.04 409.99 18.45C415.15 16.88 420.72 16.79 425.9 15.44C438.2 12.24 450.56 10.54 463.09 8.52C488.03 4.5 513.18 2.61 538.5 2.53C548.81 2.49 559.23 2.72 569.5 3.09C577.6 3.38 585.67 4.68 593.5 3.75C594.67 4.54 595.83 5.33 597 6.12ZM530.61 202.4C483.63 207.36 453.37 253.96 465.41 299.22C471.78 323.17 489.22 340.3 511.24 350.31C521.85 355.14 533.86 356.72 545.49 355.7C602.15 350.74 635.66 283.56 602.44 236.07C598.03 229.76 593.48 223.91 587.41 219.08C579.97 213.16 570.96 208.34 561.87 205.56C551.69 202.45 541.23 201.28 530.61 202.4ZM529.61 745.41C540.53 744.36 551.12 745.48 561.48 749.08C571.76 752.65 581.82 758.18 589.76 765.74C619.61 794.16 619.95 844.64 591.88 874.38C579.45 887.55 561.34 895.44 543.5 897.1C533.78 898.01 523.9 896.63 514.61 893.78C477.62 882.41 455.65 843.16 463.19 805.55C467.55 783.83 481.64 765.97 500.47 754.99C509.19 749.89 519.52 746.38 529.61 745.41Z" fill="#9d1e25" fill-rule="evenodd" stroke="#9d1e25" stroke-width="0.25" stroke-linejoin="round"/>
<path d="M597 6.12C604.71 6.06 611.98 7.6 619.53 8.81C635.65 11.4 651.14 15.07 666.8 19.6C678.87 23.08 691.43 26.05 703.21 30.38C731.03 40.59 757.64 52.73 783.7 66.79C794.31 72.52 805.05 77.84 815.33 84.15C839.31 98.87 861.6 116.27 882.7 134.83C957.65 200.75 1010.34 276.9 1044.55 370.88C1047.7 379.55 1049.62 388.57 1052.21 397.4C1055.8 409.62 1059.48 421.6 1062.52 433.98C1063.69 438.76 1065.48 443.47 1066.39 448.3C1068.39 458.88 1068.41 469.8 1069.28 480.5C1069.83 487.24 1071.58 493.65 1071.68 500.5C1071.82 510.51 1070.84 520.49 1070.93 530.5C1071.02 539.63 1072.84 548.78 1072.49 557.91C1072.15 566.8 1069.95 575.64 1069.58 584.5C1069.25 592.55 1071.38 600.28 1070.63 608.45C1070.08 614.51 1068.24 620.53 1067.33 626.57C1066.74 630.53 1066.78 634.55 1066.18 638.5C1064.87 647.09 1062.56 655.6 1060.51 664.03C1057.93 674.64 1056.85 685.42 1053.39 695.82C1050.71 703.86 1046.3 711.07 1043.51 718.99C1039.99 728.99 1040.27 739.85 1036.43 749.87C1034.68 754.42 1032.26 758.34 1030.21 762.68C1023.74 776.34 1017.44 790.24 1009.79 803.3C1005.9 809.94 1001.35 816.23 997.27 822.75C992.14 830.94 988.79 840.05 983.68 848.22C966.56 875.6 947.14 901.93 923.97 924.47C921.1 927.26 918.66 930.49 915.84 933.34C901.65 947.7 886.63 961.78 870.59 974.07C860.72 981.63 850.41 988.68 840.09 995.59C836.32 998.1 832.84 1001.11 828.93 1003.43C823.02 1006.94 816.75 1009.83 810.84 1013.36C791.05 1025.17 771.04 1036.91 750.04 1046.51C739.73 1051.21 728.83 1055.79 718.16 1059.58C712.08 1061.74 705.74 1063.03 699.68 1065.24C693.41 1067.52 687.32 1070.45 680.96 1072.47C675.13 1074.31 669.16 1075.68 663.42 1077.83C658.36 1079.72 653.82 1082.78 648.5 1084.01C642.38 1085.42 636.61 1084.43 630.5 1085.04C618.47 1086.24 606.57 1089.02 594.5 1090.07C583.57 1091.02 572.46 1090.41 561.5 1090.7C554.81 1090.88 548.19 1091.99 541.5 1092.02C530.52 1092.06 519.48 1090.4 508.5 1089.86C491.7 1089.02 478.27 1088.63 461.7 1084.66C453.21 1082.62 443.87 1080.99 436.07 1076.96C432.12 1073.75 425.87 1072.56 421.12 1070.39C409.63 1065.14 398.06 1059.85 387.22 1053.31C352.53 1032.38 321.03 1003.75 298.71 969.77C255.34 903.74 244.37 819.6 265.47 743.93C267.9 735.22 271.54 726.74 274.78 718.31C282.2 698.98 291.85 681.2 303.8 664.29C306.95 659.83 309.87 655.06 313.4 650.88C350.01 607.5 393.13 580.66 447 563.52C468.5 556.68 492 553.59 514.53 552.41C539.54 551.1 564.56 552.12 589.5 549.26C622.39 545.48 655.02 534.36 684.04 518.52C771.18 470.98 826.56 372.59 823.17 273.5C821.07 212.29 797.89 154.09 760.47 106.05C733.97 72.03 696.3 43.86 656.92 26.59C643.92 20.88 630.08 16.1 616.45 12.1C612.2 10.85 599.76 8.25 597 6.12ZM530.61 202.4C541.23 201.28 551.69 202.45 561.87 205.56C570.96 208.34 579.97 213.16 587.41 219.08C593.48 223.91 598.03 229.76 602.44 236.07C635.66 283.56 602.15 350.74 545.49 355.7C533.86 356.72 521.85 355.14 511.24 350.31C489.22 340.3 471.78 323.17 465.41 299.22C453.37 253.96 483.63 207.36 530.61 202.4ZM529.61 745.41C519.52 746.38 509.19 749.89 500.47 754.99C481.64 765.97 467.55 783.83 463.19 805.55C455.65 843.16 477.62 882.41 514.61 893.78C523.9 896.63 533.78 898.01 543.5 897.1C561.34 895.44 579.45 887.55 591.88 874.38C619.95 844.64 619.61 794.16 589.76 765.74C581.82 758.18 571.76 752.65 561.48 749.08C551.12 745.48 540.53 744.36 529.61 745.41Z" fill="#ffffff" fill-rule="evenodd" stroke="#ffffff" stroke-width="0.25" stroke-linejoin="round"/>
</svg>